<svg xmlns="http://www.w3.org/2000/svg" aria-hidden="true" style="position:absolute;width:0;height:0;overflow:hidden">
  <defs>
    <linearGradient id="gGold" x1="0%" y1="0%" x2="100%" y2="100%">
      <stop offset="0%" stop-color="#c9a962"/>
      <stop offset="100%" stop-color="#8b6914"/>
    </linearGradient>
    <linearGradient id="gSoft" x1="0%" y1="0%" x2="0%" y2="100%">
      <stop offset="0%" stop-color="#f5efe3"/>
      <stop offset="100%" stop-color="#e8dcc4"/>
    </linearGradient>
    <linearGradient id="gWater" x1="30%" y1="0%" x2="70%" y2="100%">
      <stop offset="0%" stop-color="#d4e8f5"/>
      <stop offset="45%" stop-color="#7eb8d4"/>
      <stop offset="100%" stop-color="#4a8fad"/>
    </linearGradient>
  </defs>

  <symbol id="icon-water-drop" viewBox="0 0 64 80">
    <path d="M32 6C32 6 10 38 10 52a22 22 0 1044 0C54 38 32 6 32 6z" fill="url(#gWater)" stroke="#6b8f9e" stroke-width="1.25" stroke-linejoin="round"/>
    <ellipse cx="26" cy="46" rx="7" ry="4.5" fill="#fff" opacity="0.4"/>
  </symbol>

  <symbol id="icon-teach" viewBox="0 0 48 48">
    <rect x="8" y="6" width="32" height="36" rx="4" fill="url(#gSoft)" stroke="#9a7224" stroke-width="1.5"/>
    <path d="M14 16h20M14 22h16M14 28h12" stroke="#9a7224" stroke-width="2" stroke-linecap="round"/>
    <circle cx="36" cy="12" r="6" fill="#c9a962"/>
  </symbol>
  <symbol id="icon-practice" viewBox="0 0 48 48">
    <ellipse cx="24" cy="38" rx="14" ry="4" fill="#e8dcc4"/>
    <path d="M24 36V22" stroke="#6b4f18" stroke-width="2.25" stroke-linecap="round"/>
    <path d="M24 22c-9-7-11-16-5-18 5-2 5 9 5 14" fill="#c9a962" stroke="#9a7224" stroke-width="1.25" stroke-linejoin="round"/>
    <path d="M24 22c9-7 11-16 5-18-5-2-5 9-5 14" fill="#c9a962" stroke="#9a7224" stroke-width="1.25" stroke-linejoin="round"/>
    <path d="M14 38h20" stroke="#9a7224" stroke-width="1.75" stroke-linecap="round"/>
  </symbol>
  <symbol id="icon-say" viewBox="0 0 48 48">
    <path d="M8 14c0-4 6-8 16-8s16 4 16 8v10c0 4-6 8-16 8-3 0-6-.5-8-1.5L10 38v-12c-2-2-2-6-2-12z" fill="url(#gSoft)" stroke="#9a7224" stroke-width="1.5"/>
    <path d="M18 22h12M18 28h8" stroke="#9a7224" stroke-width="2" stroke-linecap="round"/>
  </symbol>

  <symbol id="deco-lotus-sm" viewBox="0 0 24 24">
    <path d="M12 4c0 0-4 6-4 10a4 4 0 008 0c0-4-4-10-4-10z" fill="#c9a962" opacity=".6"/>
  </symbol>
</svg>
